<svg xmlns="http://www.w3.org/2000/svg" width="70" height="70" viewBox="0 0 70 70" style="width: 100%; height: 100%;"><desc>Made with illustrio</desc>
  
<g class="content"><rect x="8" y="8" width="54" height="54" rx="10" ry="10" class="main-fill"></rect><g class="base"><g fill="none" fill-rule="evenodd" stroke="none" class="secondary-fill">
    
    
  </g><g fill="none" transform="translate(20 21)" stroke="none" class="secondary-fill">
      <path d="M11.7,27.2 C10.7,27.2 9.7,27.1 8.7,26.8 C8.5,26.8 8.4,26.6 8.3,26.4 C8.2,26.2 8.2,26 8.3,25.8 C8.8,24.7 8.3,23.4 7.3,22.8 C6.3,22.2 4.9,22.5 4.1,23.4 C4,23.6 3.8,23.6 3.6,23.7 C3.4,23.7 3.2,23.6 3.1,23.5 C1.7,22 0.6,20.2 0.1,18.3 C-1.22124533e-15,18.1 0.1,17.9 0.2,17.7 C0.3,17.5 0.5,17.4 0.7,17.4 C1.9,17.2 2.8,16.2 2.8,15 C2.8,13.8 1.9,12.7 0.7,12.6 C0.5,12.6 0.3,12.5 0.2,12.3 C0,12.1 0,11.9 0,11.7 C0.5,9.7 1.6,7.9 3,6.5 C3.1,6.4 3.3,6.3 3.5,6.3 C3.7,6.3 3.9,6.4 4,6.6 C4.7,7.5 6.1,7.8 7.2,7.2 C8.3,6.6 8.7,5.3 8.2,4.2 C8.2,4 8.2,3.8 8.3,3.6 C8.4,3.4 8.5,3.3 8.7,3.3 C10.7,2.8 12.8,2.8 14.7,3.3 C14.9,3.3 15,3.5 15.1,3.7 C15.2,3.9 15.2,4.1 15.1,4.3 C14.6,5.4 15.1,6.7 16.1,7.3 C16.2,7.4 16.4,7.4 16.5,7.5 C16.7,7.6 16.9,7.7 16.9,7.9 C17,8.1 16.9,8.3 16.8,8.5 L14.7,11.6 C14.6,11.8 14.4,11.9 14.3,11.9 C14.1,11.9 13.9,11.9 13.8,11.8 C13.2,11.4 12.4,11.2 11.7,11.2 C9.6,11.2 7.9,12.9 7.9,15 C7.9,17.1 9.6,18.8 11.7,18.8 L12.5,18.8 C13,18.7 13.2,18.9 13.3,19.1 L15.2,23 C15.3,23.2 15.3,23.5 15.1,23.7 C14.6,24.3 14.6,24.9 15,25.9 C15.1,26.1 15.1,26.3 15,26.5 C14.9,26.7 14.8,26.8 14.6,26.8 C13.8,27 12.7,27.2 11.7,27.2 L11.7,27.2 Z" fill="none" stroke="none" class="secondary-fill"></path>
      <path d="M30,17.4 C30,15.1 29.3,12.7 27.8,10.1 C27.7,9.9 27.4,9.8 27.2,9.8 C27,9.8 26.8,10 26.7,10.2 C26.7,10.2 26.4,11.2 25.8,12.1 C26.2,10.4 26.4,7.8 25.1,5.7 C23,2.3 20.1,1 20,1 C19.8,0.9 19.6,0.9 19.4,1.1 C19.2,1.2 19.1,1.4 19.2,1.6 C19.2,1.6 19.4,5.8 18.4,8.4 C17.9,9.6 17.3,10.7 16.7,11.7 C15.6,13.5 14.5,15.2 14.5,17.5 C14.5,20.3 16.3,22.6 18.9,23.7 C18.8,23.2 18.7,22.7 18.7,22.3 C18.7,21.2 19.2,20.3 19.9,19.3 C20.3,18.6 20.8,17.9 21.1,17 C21.5,16 21.6,14.8 21.7,13.9 C22.2,14.3 22.7,14.8 23.1,15.6 C24.3,17.5 24.8,18.3 24.8,18.3 C25.6,19.7 26,21.1 26,22.3 C26,22.8 26,23.2 25.9,23.6 C28.3,22.4 30,20.1 30,17.4 L30,17.4 Z" fill="none" stroke="none" class="secondary-fill"></path>
    </g></g></g><style>
          .main-fill {fill: #000000;}
          .main-stroke {stroke: #000000;}
          .secondary-fill {fill: #fffe6e;}
          .secondary-stroke {stroke: #fffe6e;}

          .main-fill--darken {fill: #000000;}
          .main-stroke--darken {stroke: #000000;}
          .secondary-fill--darken {fill: #fffd21;}
          .secondary-stroke--darken {stroke: #fffd21;}

          .main-fill--darkener {fill: #000000;}
          .main-stroke--darkener {stroke: #000000;}
          .secondary-fill--darkener {fill: #edec00;}
          .secondary-stroke--darkener {stroke: #edec00;}
        </style></svg>