<svg xmlns="http://www.w3.org/2000/svg" width="70" height="70" viewBox="0 0 70 70" style="width: 100%; height: 100%;"><desc>Made with illustrio</desc>
  
<g class="content"><rect x="8" y="8" width="54" height="54" rx="10" ry="10" class="main-fill"></rect><g class="base"><g fill="none" fill-rule="evenodd" stroke="none" class="secondary-fill">
    
    
  </g><g fill="none" transform="translate(18.455 19.09)" stroke="none" class="secondary-fill">
      <path d="M8.90909091,14 C7.15463636,14 5.72727273,15.4273636 5.72727273,17.1818182 C5.72727273,18.9362727 7.15463636,20.3636364 8.90909091,20.3636364 C10.6635455,20.3636364 12.0909091,18.9362727 12.0909091,17.1818182 C12.0909091,15.4273636 10.6635455,14 8.90909091,14 L8.90909091,14 Z M10.1818182,17.8181818 L9.54545455,17.8181818 L9.54545455,18.4545455 C9.54545455,18.8064545 9.26036364,19.0909091 8.90909091,19.0909091 C8.55781818,19.0909091 8.27272727,18.8064545 8.27272727,18.4545455 L8.27272727,17.8181818 L7.63636364,17.8181818 C7.28509091,17.8181818 7,17.5337273 7,17.1818182 C7,16.8299091 7.28509091,16.5454545 7.63636364,16.5454545 L8.27272727,16.5454545 L8.27272727,15.9090909 C8.27272727,15.5578182 8.55781818,15.2727273 8.90909091,15.2727273 C9.26036364,15.2727273 9.54545455,15.5578182 9.54545455,15.9090909 L9.54545455,16.5454545 L10.1818182,16.5454545 C10.5330909,16.5454545 10.8181818,16.8299091 10.8181818,17.1818182 C10.8181818,17.5337273 10.5330909,17.8181818 10.1818182,17.8181818 L10.1818182,17.8181818 Z" fill="none" stroke="none" class="secondary-fill"></path>
      <path d="M32.9330909,24.7882727 L31.9658182,17.0539091 C31.493,13.2643636 28.0006364,10.1818182 24.1818182,10.1818182 L17.1818182,10.1818182 L17.1818182,5.72727273 C17.1818182,4.67472727 18.0383636,3.81818182 19.0909091,3.81818182 C20.1434545,3.81818182 21,4.67472727 21,5.72727273 C21,6.77981818 21.8565455,7.63636364 22.9090909,7.63636364 C23.9616364,7.63636364 24.8181818,6.77981818 24.8181818,5.72727273 L24.8181818,0.636363636 C24.8181818,0.285090909 24.5337273,0 24.1818182,0 C23.8299091,0 23.5454545,0.285090909 23.5454545,0.636363636 L23.5454545,5.72727273 C23.5454545,6.07790909 23.2603636,6.36363636 22.9090909,6.36363636 C22.5578182,6.36363636 22.2727273,6.07790909 22.2727273,5.72727273 C22.2727273,3.97281818 20.8453636,2.54545455 19.0909091,2.54545455 C17.3364545,2.54545455 15.9090909,3.97281818 15.9090909,5.72727273 L15.9090909,10.1818182 L8.90909091,10.1818182 C5.09027273,10.1818182 1.59854545,13.2643636 1.12509091,17.0539091 L0.157818182,24.7882727 C-0.120909091,27.0206364 0.409181818,29.1429091 1.57627273,30.4646364 C2.35772727,31.3504545 3.353,31.8181818 4.45454545,31.8181818 C7.175,31.8181818 10.0189091,29.6125455 10.7933636,26.9016364 C11.4125455,24.7373636 14.0464545,22.9090909 16.5454545,22.9090909 C19.0450909,22.9090909 21.679,24.7373636 22.2969091,26.9016364 C23.0713636,29.6125455 25.9152727,31.8181818 28.6363636,31.8181818 C29.7372727,31.8181818 30.7325455,31.3504545 31.514,30.4646364 C32.6810909,29.1429091 33.2118182,27.0206364 32.9330909,24.7882727 L32.9330909,24.7882727 Z M24.1818182,13.3636364 C24.8843636,13.3636364 25.4545455,13.9338182 25.4545455,14.6363636 C25.4551818,15.3389091 24.885,15.9090909 24.1818182,15.9090909 C23.4792727,15.9090909 22.9090909,15.3389091 22.9090909,14.6363636 C22.9090909,13.9338182 23.4792727,13.3636364 24.1818182,13.3636364 L24.1818182,13.3636364 Z M8.90909091,21.6363636 C6.45272727,21.6363636 4.45454545,19.6375455 4.45454545,17.1818182 C4.45454545,14.7254545 6.45272727,12.7272727 8.90909091,12.7272727 C11.3654545,12.7272727 13.3636364,14.7254545 13.3636364,17.1818182 C13.3636364,19.6375455 11.3654545,21.6363636 8.90909091,21.6363636 L8.90909091,21.6363636 Z M15.2727273,20.3636364 L14,20.3636364 C13.6487273,20.3636364 13.3636364,20.0791818 13.3636364,19.7272727 C13.3636364,19.3753636 13.6487273,19.0909091 14,19.0909091 L15.2727273,19.0909091 C15.624,19.0909091 15.9090909,19.3753636 15.9090909,19.7272727 C15.9090909,20.0791818 15.624,20.3636364 15.2727273,20.3636364 L15.2727273,20.3636364 Z M19.0909091,20.3636364 L17.8181818,20.3636364 C17.4662727,20.3636364 17.1818182,20.0791818 17.1818182,19.7272727 C17.1818182,19.3753636 17.4662727,19.0909091 17.8181818,19.0909091 L19.0909091,19.0909091 C19.4428182,19.0909091 19.7272727,19.3753636 19.7272727,19.7272727 C19.7272727,20.0791818 19.4428182,20.3636364 19.0909091,20.3636364 L19.0909091,20.3636364 Z M21.6363636,18.4545455 C20.9338182,18.4545455 20.3636364,17.8843636 20.3636364,17.1818182 C20.3636364,16.4792727 20.9338182,15.9090909 21.6363636,15.9090909 C22.3389091,15.9090909 22.9090909,16.4792727 22.9090909,17.1818182 C22.9090909,17.8843636 22.3389091,18.4545455 21.6363636,18.4545455 L21.6363636,18.4545455 Z M24.1818182,20.9993636 C23.4792727,21 22.9090909,20.4298182 22.9090909,19.7266364 C22.9090909,19.0240909 23.4792727,18.4539091 24.1818182,18.4539091 C24.885,18.4539091 25.4551818,19.0240909 25.4545455,19.7266364 C25.4545455,20.4298182 24.8843636,21 24.1818182,20.9993636 L24.1818182,20.9993636 Z M26.7272727,18.4545455 C26.0247273,18.4545455 25.4545455,17.8843636 25.4545455,17.1818182 C25.4545455,16.4792727 26.0247273,15.9090909 26.7272727,15.9090909 C27.4298182,15.9090909 28,16.4792727 28,17.1818182 C28,17.8843636 27.4298182,18.4545455 26.7272727,18.4545455 L26.7272727,18.4545455 Z" fill="none" stroke="none" class="secondary-fill"></path>
    </g></g></g><style>
          .main-fill {fill: #000000;}
          .main-stroke {stroke: #000000;}
          .secondary-fill {fill: #fffe6e;}
          .secondary-stroke {stroke: #fffe6e;}

          .main-fill--darken {fill: #000000;}
          .main-stroke--darken {stroke: #000000;}
          .secondary-fill--darken {fill: #fffd21;}
          .secondary-stroke--darken {stroke: #fffd21;}

          .main-fill--darkener {fill: #000000;}
          .main-stroke--darkener {stroke: #000000;}
          .secondary-fill--darkener {fill: #edec00;}
          .secondary-stroke--darkener {stroke: #edec00;}
        </style></svg>