<svg version="1.1" id="Layer_1" xmlns="http://www.w3.org/2000/svg" xmlns:xlink="http://www.w3.org/1999/xlink" x="0px" y="0px"
	 width="240px" height="120px" viewBox="0 0 240 120" enable-background="new 0 0 240 120" xml:space="preserve">
<g transform="translate(22, 22)">
	<path fill="#7D7160" d="M195,4h-4V1c0-0.6-0.4-1-1-1h-7c-1.7,0-3,1.3-3,3v10c0,1.7,1.3,3,3,3h12c0.6,0,1-0.4,1-1V5
		C196,4.4,195.6,4,195,4z M182,3c0-0.6,0.4-1,1-1h6v2h-7V3z M194,14h-11c-0.6,0-1-0.4-1-1V6h8h4V14z"/>
	<rect x="191" y="9" fill="#D2C9C0" width="2" height="2"/>
</g>
</svg>