<svg xmlns="http://www.w3.org/2000/svg" width="70" height="70" viewBox="0 0 70 70" style="width: 100%; height: 100%;"><desc>Made with illustrio</desc>
  
<g class="content"><rect x="8" y="8" width="54" height="54" rx="10" ry="10" class="main-fill"></rect><g class="base"><g fill="none" fill-rule="evenodd" stroke="none" class="secondary-fill">
  </g><g fill="none" transform="translate(17.818 17.818)" stroke="none" class="secondary-fill">
      <path d="M16.5454545.546636364C14.2500909 1.01627273 12.2194545 3.99381818 11.004 8.22754545 12.7431818 8.56736364 14.6121818 8.77290909 16.5454545 8.83018182L16.5454545.546636364 16.5454545.546636364zM9.82227273 16.5454545L16.5454545 16.5454545 16.5454545 10.1035455C14.5033636 10.045 12.5255455 9.82418182 10.6813636 9.45827273 10.1729091 11.6047273 9.86681818 14.0133636 9.82227273 16.5454545L9.82227273 16.5454545zM10.724 25.0867273C12.5739091 24.7634545 14.5364545 24.5814545 16.5454545 24.5598182L16.5454545 17.8181818 9.82227273 17.8181818C9.86809091 20.4215455 10.1894545 22.8957273 10.724 25.0867273L10.724 25.0867273zM16.5454545 33.817L16.5454545 25.8325455C14.6484545 25.8535455 12.7985455 26.0209091 11.0561818 26.3180909 12.2767273 30.4550909 14.2831818 33.3537273 16.5454545 33.817L16.5454545 33.817zM25.8140909 17.8181818C25.7701818 20.5672727 25.4430909 23.1407273 24.8900909 25.4214545 27.1205455 25.9400909 29.1238182 26.6776364 30.7529091 27.6060909 30.7700909 27.6162727 30.7809091 27.6334545 30.7968182 27.6449091 32.9089091 24.9021818 34.2115455 21.5071818 34.3470909 17.8188182L25.8140909 17.8188182 25.8140909 17.8181818zM23.4022727 8.37772727C22.1925455 4.06445455 20.1402727 1.022 17.8181818.546636364L17.8181818 8.84354545C19.7463636 8.83463636 21.6287273 8.67172727 23.4022727 8.37772727L23.4022727 8.37772727zM24.6845455 8.14545455C26.8373636 7.69427273 28.7833636 7.03690909 30.3749091 6.202 30.3774545 6.20072727 30.3806364 6.20072727 30.3838182 6.19945455 27.832 3.13727273 24.2371818.976818182 20.1510909.261545455 22.0869091 1.69463636 23.6848182 4.49845455 24.6845455 8.14545455L24.6845455 8.14545455zM30.9667273 7.32963636C29.288 8.20972727 27.2459091 8.90272727 24.9944545 9.37872727 25.4850909 11.5493636 25.7733636 13.9713636 25.8140909 16.5460909L34.3470909 16.5460909C34.2198182 13.0632727 33.0508182 9.84327273 31.143 7.18645455 31.0933636 7.24181818 31.0367273 7.29272727 30.9667273 7.32963636L30.9667273 7.32963636zM23.289 26.3842727C21.5657273 26.0660909 19.7221818 25.8777273 17.8181818 25.8338182L17.8181818 33.817C20.0683636 33.3562727 22.0659091 30.4862727 23.289 26.3842727L23.289 26.3842727zM8.54954545 16.5454545C8.59218182 13.8918182 8.897 11.4004545 9.41627273 9.17954545 7.30227273 8.66472727 5.40209091 7.952 3.84490909 7.06363636 3.70681818 6.98472727 3.61581818 6.85872727 3.56618182 6.71936364 1.45409091 9.46209091.151454545 12.8564545.0159090909 16.5454545L8.54954545 16.5454545 8.54954545 16.5454545zM24.5642727 26.6502727C23.5581818 30.0891818 22.0086364 32.7275455 20.1479091 34.1020909 24.0214545 33.425 27.454 31.4490909 29.9746364 28.6363636 28.4632727 27.7976364 26.6222727 27.1256364 24.5642727 26.6502727L24.5642727 26.6502727zM8.54954545 17.8181818L.0159090909 17.8181818C.148272727 21.4378182 1.40254545 24.7761818 3.44590909 27.4909091 3.49681818 27.4317273 3.55727273 27.3789091 3.63109091 27.3407273 5.27163636 26.4803636 7.26154545 25.8032727 9.45127273 25.3285455 8.91163636 23.0713636 8.59281818 20.5303636 8.54954545 17.8181818L8.54954545 17.8181818zM9.77263636 26.5586364C7.68345455 27.0072727 5.79090909 27.6480909 4.23690909 28.4607273 6.77090909 31.3644545 10.262 33.4097273 14.2150909 34.1014545 12.3378182 32.7148182 10.7780909 30.0420909 9.77263636 26.5586364L9.77263636 26.5586364zM24.5413636 17.8181818L17.8181818 17.8181818 17.8181818 24.5610909C19.8341818 24.6062727 21.7922727 24.8092727 23.6230909 25.1541818 24.1671818 22.946 24.4955455 20.4489091 24.5413636 17.8181818L24.5413636 17.8181818zM23.7179091 9.61227273C21.8412727 9.93045455 19.8526364 10.1073636 17.8181818 10.1162727L17.8181818 16.5454545 24.5413636 16.5454545C24.4980909 14.0731818 24.2040909 11.7199091 23.7179091 9.61227273L23.7179091 9.61227273zM4.47554545 5.95827273C5.93854545 6.79318182 7.73118182 7.46390909 9.73318182 7.94945455 10.7367273 4.39663636 12.3123636 1.66790909 14.2150909.261545455 10.2702727.951363636 6.78618182 2.98963636 4.25345455 5.88381818 4.32918182 5.89590909 4.40427273 5.91754545 4.47554545 5.95827273L4.47554545 5.95827273z" fill="none" stroke="none" class="secondary-fill"></path>
    </g></g></g>
    <style>
          .main-fill {fill: #000000;}
          .main-stroke {stroke: #000000;}
          .secondary-fill {fill: #fffe6e;}
          .secondary-stroke {stroke: #fffe6e;}

          .main-fill--darken {fill: #000000;}
          .main-stroke--darken {stroke: #000000;}
          .secondary-fill--darken {fill: #fffd21;}
          .secondary-stroke--darken {stroke: #fffd21;}

          .main-fill--darkener {fill: #000000;}
          .main-stroke--darkener {stroke: #000000;}
          .secondary-fill--darkener {fill: #edec00;}
          .secondary-stroke--darkener {stroke: #edec00;}
        </style></svg>